<svg xmlns="http://www.w3.org/2000/svg" version="1.1" xmlns:xlink="http://www.w3.org/1999/xlink" xmlns:svgjs="http://svgjs.dev/svgjs" width="1500" height="1500" viewBox="0 0 1500 1500"><rect width="1500" height="1500" fill="#000000"></rect><g transform="matrix(0.6666666666666666,0,0,0.6666666666666666,249.39393939393938,614.3728069984658)"><svg viewBox="0 0 396 107" data-background-color="#ffffff" preserveAspectRatio="xMidYMid meet" height="405" width="1500" xmlns="http://www.w3.org/2000/svg" xmlns:xlink="http://www.w3.org/1999/xlink"><g id="tight-bounds" transform="matrix(1,0,0,1,0.2400000000000091,0.24855426357098054)"><svg viewBox="0 0 395.52 106.42756050653618" height="106.42756050653618" width="395.52"><g><svg viewBox="0 0 513.499160882009 138.17370301078475" height="106.42756050653618" width="395.52"><g transform="matrix(1,0,0,1,0,19.096365611476045)"><svg viewBox="0 0 395.52 99.98097178783266" height="99.98097178783266" width="395.52"><g id="textblocktransform"><svg viewBox="0 0 395.52 99.98097178783266" height="99.98097178783266" width="395.52" id="textblock"><g><svg viewBox="0 0 395.52 70.41604814443329" height="70.41604814443329" width="395.52"><g transform="matrix(1,0,0,1,0,0)"><svg width="395.52" viewBox="3.25 -35 199.38 35.5" height="70.41604814443329" data-palette-color="#647048"><path d="M23.15-4.4L23.15 0 3.25 0 3.25-26.65Q3.25-30.35 5.6-32.6L5.6-32.6Q7.2-34.1 9.2-34.55 11.2-35 14.1-35L14.1-35 23.15-35 23.15-30.6 13.45-30.6Q7.95-30.6 7.95-26L7.95-26 7.95-20.3 19.5-20.3 19.5-15.9 7.95-15.9 7.95-4.4 23.15-4.4ZM28.4-9.5L28.4-9.5 28.4-35 32.9-35 32.9-9.5Q32.9-7.7 33.32-6.58 33.75-5.45 34.65-4.98 35.55-4.5 36.4-4.35 37.25-4.2 38.65-4.2L38.65-4.2 38.65 0Q33.05 0 30.72-2.15 28.4-4.3 28.4-9.5ZM60.65-4.2L60.65-35 65.15-35 65.15 0 53.4 0Q47.95 0 44.55-3.48 41.15-6.95 41.15-12.25L41.15-12.25Q41.15-17.45 44.67-20.98 48.2-24.5 53.05-24.5L53.05-24.5Q56.15-24.5 58.85-23L58.85-23 58.85-18.5Q56.34-20.3 53.05-20.3L53.05-20.3Q50.05-20.3 47.97-18.07 45.9-15.85 45.9-12.25L45.9-12.25Q45.9-8.6 47.87-6.4 49.85-4.2 53.4-4.2L53.4-4.2 60.65-4.2ZM82.89-24.5L82.89-24.5Q91.39-24.15 91.39-17.45L91.39-17.45Q91.39-9.1 80.44-9.1L80.44-9.1 78.39-9.1 78.39-12.95 80.79-12.95Q84.14-12.95 85.44-13.98 86.74-15 86.74-17.4L86.74-17.4Q86.74-18.95 85.59-19.73 84.44-20.5 82.64-20.5L82.64-20.5Q79.09-20.5 77.07-18 75.04-15.5 75.04-12L75.04-12Q75.04-8.3 77.22-6 79.39-3.7 82.89-3.7L82.89-3.7Q86.04-3.7 88.04-5.25L88.04-5.25 91.04-2.3Q87.59 0.5 82.89 0.5L82.89 0.5Q77.19 0.5 73.79-2.85 70.39-6.2 70.39-11.5L70.39-11.5Q70.39-17.4 73.74-21.05 77.09-24.7 82.89-24.5ZM100.04 0L95.64 0 95.64-13.65Q95.64-19.4 97.79-21.6L97.79-21.6Q98.84-22.7 100.34-23.25 101.84-23.8 102.97-23.9 104.09-24 106.04-24L106.04-24 110.44-24 110.44-19.8 105.14-19.8Q104.14-19.8 103.59-19.75 103.04-19.7 102.29-19.4 101.54-19.1 100.99-18.45L100.99-18.45Q100.04-17.25 100.04-13.65L100.04-13.65 100.04 0ZM113.69-17.5L113.69-17.5Q113.74-25.85 118.31-30.43 122.89-35 130.94-35L130.94-35 134.19-35 134.19-30.6 130.34-30.6Q124.79-30.6 121.81-26.93 118.84-23.25 118.74-17.5L118.74-17.5Q118.84-11.75 121.81-8.08 124.79-4.4 130.34-4.4L130.34-4.4 134.19-4.4 134.19 0 130.94 0Q122.89 0 118.31-4.58 113.74-9.15 113.69-17.5ZM153.28-14.1L153.28-14.1 153.28-9.6Q151.38-11.05 148.63-11.05L148.63-11.05Q146.28-11.05 144.99-10.13 143.69-9.2 143.69-7.5L143.69-7.5Q143.69-4.2 148.59-4.2L148.59-4.2 155.19-4.2 155.19-13.75Q155.19-19.8 149.28-19.8L149.28-19.8 141.28-19.8 141.28-24 149.53-24Q154.38-24 156.99-21.6 159.59-19.2 159.59-14.7L159.59-14.7 159.59 0 148.44 0Q144.19 0 141.69-1.9 139.19-3.8 139.19-7.45 139.19-11.1 141.84-13 144.49-14.9 148.49-14.9L148.49-14.9Q150.74-14.9 153.28-14.1ZM168.73 0L164.33 0 164.33-13.65Q164.33-19.4 166.48-21.6L166.48-21.6Q167.53-22.7 169.03-23.25 170.53-23.8 171.66-23.9 172.78-24 174.73-24L174.73-24 179.13-24 179.13-19.8 173.83-19.8Q172.83-19.8 172.28-19.75 171.73-19.7 170.98-19.4 170.23-19.1 169.68-18.45L169.68-18.45Q168.73-17.25 168.73-13.65L168.73-13.65 168.73 0ZM194.13-24.5L194.13-24.5Q202.63-24.15 202.63-17.45L202.63-17.45Q202.63-9.1 191.68-9.1L191.68-9.1 189.63-9.1 189.63-12.95 192.03-12.95Q195.38-12.95 196.68-13.98 197.98-15 197.98-17.4L197.98-17.4Q197.98-18.95 196.83-19.73 195.68-20.5 193.88-20.5L193.88-20.5Q190.33-20.5 188.31-18 186.28-15.5 186.28-12L186.28-12Q186.28-8.3 188.46-6 190.63-3.7 194.13-3.7L194.13-3.7Q197.28-3.7 199.28-5.25L199.28-5.25 202.28-2.3Q198.83 0.5 194.13 0.5L194.13 0.5Q188.43 0.5 185.03-2.85 181.63-6.2 181.63-11.5L181.63-11.5Q181.63-17.4 184.98-21.05 188.33-24.7 194.13-24.5Z" opacity="1" transform="matrix(1,0,0,1,0,0)" fill="#ffffff" class="wordmark-text-0" data-fill-palette-color="primary" id="text-0"></path></svg></g></svg></g><g transform="matrix(1,0,0,1,163.310208,87.03958712617853)"><svg viewBox="0 0 232.209792 12.941384661654133" height="12.941384661654133" width="232.209792"><g transform="matrix(1,0,0,1,0,0)"><svg width="232.209792" viewBox="2.7 -32.9 758.02 42.25" height="12.941384661654133" data-palette-color="#647048"><path d="M26.65-27.05L26.65-27.05Q26.65-26.4 26.23-25.88 25.8-25.35 25.25-25.1L25.25-25.1Q24-26 22.23-26.8 20.45-27.6 17.65-27.6L17.65-27.6Q14.6-27.6 12.18-26.2 9.75-24.8 8.33-22.03 6.9-19.25 6.9-15.15L6.9-15.15Q6.9-9 9.93-5.9 12.95-2.8 17.8-2.8L17.8-2.8Q20.4-2.8 22.35-3.55 24.3-4.3 25.55-5.25L25.55-5.25Q26.05-5.05 26.5-4.53 26.95-4 26.95-3.3L26.95-3.3Q26.95-2.8 26.68-2.33 26.4-1.85 25.75-1.4L25.75-1.4Q24.6-0.6 22.6 0.03 20.6 0.65 17.5 0.65L17.5 0.65Q13.35 0.65 9.98-1.13 6.6-2.9 4.65-6.4 2.7-9.9 2.7-15.15L2.7-15.15Q2.7-20.4 4.73-23.95 6.75-27.5 10.08-29.28 13.4-31.05 17.35-31.05L17.35-31.05Q20.1-31.05 22.2-30.45 24.3-29.85 25.48-28.93 26.65-28 26.65-27.05ZM54.6-11.55L54.6-11.55Q54.6-7.85 53.2-5.1 51.8-2.35 49.25-0.85 46.7 0.65 43.25 0.65L43.25 0.65Q39.8 0.65 37.22-0.85 34.65-2.35 33.25-5.1 31.85-7.85 31.85-11.55L31.85-11.55Q31.85-15.3 33.27-18.03 34.7-20.75 37.27-22.25 39.85-23.75 43.25-23.75L43.25-23.75Q46.65-23.75 49.2-22.25 51.75-20.75 53.17-18.03 54.6-15.3 54.6-11.55ZM43.25-20.45L43.25-20.45Q39.9-20.45 37.92-18.07 35.95-15.7 35.95-11.55L35.95-11.55Q35.95-7.35 37.87-5 39.8-2.65 43.25-2.65L43.25-2.65Q46.65-2.65 48.57-5.03 50.5-7.4 50.5-11.55L50.5-11.55Q50.5-15.7 48.57-18.07 46.65-20.45 43.25-20.45ZM80.8-15.25L80.8-15.25 80.8-10.15 76.8-10.15 76.8-15.05Q76.8-17.85 75.22-19.15 73.65-20.45 71-20.45L71-20.45Q69-20.45 67.45-19.95 65.89-19.45 64.8-18.8L64.8-18.8 64.8-10.15 60.8-10.15 60.8-18.6Q60.8-19.65 61.22-20.33 61.65-21 62.7-21.65L62.7-21.65Q64-22.4 66.14-23.08 68.3-23.75 71-23.75L71-23.75Q75.55-23.75 78.17-21.68 80.8-19.6 80.8-15.25ZM60.8-1.55L60.8-12.9 64.8-12.9 64.8-0.1Q64.55 0 64.05 0.13 63.55 0.25 62.95 0.25L62.95 0.25Q61.9 0.25 61.34-0.18 60.8-0.6 60.8-1.55L60.8-1.55ZM76.8-1.55L76.8-12.9 80.8-12.9 80.8-0.1Q80.55 0 80.02 0.13 79.5 0.25 78.95 0.25L78.95 0.25Q77.84 0.25 77.32-0.18 76.8-0.6 76.8-1.55L76.8-1.55ZM106.54-11.35L89.74-9 89.54-12.15 104.64-14.2Q104.44-16.95 102.74-18.73 101.04-20.5 98.04-20.5L98.04-20.5Q94.94-20.5 92.92-18.28 90.89-16.05 90.89-11.9L90.89-11.9 90.89-10.8Q91.24-6.8 93.52-4.73 95.79-2.65 99.74-2.65L99.74-2.65Q101.84-2.65 103.54-3.35 105.24-4.05 106.24-4.85L106.24-4.85Q106.79-4.5 107.12-4.03 107.44-3.55 107.44-2.95L107.44-2.95Q107.44-2 106.37-1.18 105.29-0.35 103.52 0.15 101.74 0.65 99.54 0.65L99.54 0.65Q95.69 0.65 92.87-0.75 90.04-2.15 88.52-4.93 86.99-7.7 86.99-11.7L86.99-11.7Q86.99-14.55 87.82-16.78 88.64-19 90.12-20.55 91.59-22.1 93.64-22.93 95.69-23.75 98.09-23.75L98.09-23.75Q101.14-23.75 103.47-22.45 105.79-21.15 107.12-18.82 108.44-16.5 108.44-13.5L108.44-13.5Q108.44-12.4 107.94-11.93 107.44-11.45 106.54-11.35L106.54-11.35ZM124.94-20.4L124.94-20.4Q121.54-20.4 119.29-18.1 117.04-15.8 117.04-11.5L117.04-11.5Q117.04-7.25 119.22-4.95 121.39-2.65 124.94-2.65L124.94-2.65Q127.04-2.65 128.44-3.23 129.84-3.8 130.94-4.55L130.94-4.55Q131.49-4.25 131.84-3.8 132.19-3.35 132.19-2.7L132.19-2.7Q132.19-1.3 130.12-0.33 128.04 0.65 124.94 0.65L124.94 0.65Q121.49 0.65 118.77-0.68 116.04-2 114.49-4.7 112.94-7.4 112.94-11.5L112.94-11.5Q112.94-15.55 114.54-18.28 116.14-21 118.87-22.38 121.59-23.75 124.84-23.75L124.84-23.75Q127.94-23.75 129.97-22.7 131.99-21.65 131.99-20.3L131.99-20.3Q131.99-19.7 131.64-19.25 131.29-18.8 130.74-18.55L130.74-18.55Q129.64-19.3 128.31-19.85 126.99-20.4 124.94-20.4ZM138.19-6.05L138.19-13.2 142.19-13.2 142.19-6.3Q142.19-4.3 143.34-3.48 144.49-2.65 146.49-2.65L146.49-2.65Q147.34-2.65 148.39-2.95 149.44-3.25 150.14-3.65L150.14-3.65Q150.44-3.35 150.69-2.9 150.94-2.45 150.94-1.85L150.94-1.85Q150.94-0.75 149.64-0.05 148.34 0.65 146.04 0.65L146.04 0.65Q142.54 0.65 140.36-0.9 138.19-2.45 138.19-6.05L138.19-6.05ZM149.34-19.3L140.24-19.3 140.24-22.6 150.39-22.6Q150.54-22.4 150.69-21.95 150.84-21.5 150.84-21L150.84-21Q150.84-20.2 150.44-19.75 150.04-19.3 149.34-19.3L149.34-19.3ZM142.19-28.35L142.19-11.7 138.19-11.7 138.19-29.8Q138.44-29.9 138.96-30.03 139.49-30.15 140.09-30.15L140.09-30.15Q141.14-30.15 141.66-29.73 142.19-29.3 142.19-28.35L142.19-28.35ZM164.99 0.7L164.99 0.7Q160.29 0.7 157.71-1.15 155.14-3 155.14-6.5L155.14-6.5Q155.14-9.75 157.31-11.48 159.49-13.2 163.34-13.55L163.34-13.55 170.44-14.25 170.44-15.65Q170.44-18.15 168.94-19.3 167.44-20.45 164.89-20.45L164.89-20.45Q162.84-20.45 160.96-19.85 159.09-19.25 157.64-18.5L157.64-18.5Q157.24-18.85 156.91-19.33 156.59-19.8 156.59-20.3L156.59-20.3Q156.59-21.6 158.04-22.3L158.04-22.3Q159.39-23 161.16-23.38 162.94-23.75 164.94-23.75L164.94-23.75Q169.29-23.75 171.84-21.8 174.39-19.85 174.39-15.65L174.39-15.65 174.39-3.8Q174.39-2.7 173.96-2.13 173.54-1.55 172.69-1.05L172.69-1.05Q171.49-0.4 169.49 0.15 167.49 0.7 164.99 0.7ZM164.99-2.6L164.99-2.6Q167.09-2.6 168.46-3.03 169.84-3.45 170.44-3.85L170.44-3.85 170.44-11.1 164.24-10.45Q161.64-10.25 160.39-9.3 159.14-8.35 159.14-6.55L159.14-6.55Q159.14-4.7 160.61-3.65 162.09-2.6 164.99-2.6ZM201.68-15.25L201.68-15.25 201.68-10.15 197.68-10.15 197.68-15.05Q197.68-17.85 196.11-19.15 194.53-20.45 191.88-20.45L191.88-20.45Q189.88-20.45 188.33-19.95 186.78-19.45 185.68-18.8L185.68-18.8 185.68-10.15 181.68-10.15 181.68-18.6Q181.68-19.65 182.11-20.33 182.53-21 183.58-21.65L183.58-21.65Q184.88-22.4 187.03-23.08 189.18-23.75 191.88-23.75L191.88-23.75Q196.43-23.75 199.06-21.68 201.68-19.6 201.68-15.25ZM181.68-1.55L181.68-12.9 185.68-12.9 185.68-0.1Q185.43 0 184.93 0.13 184.43 0.25 183.83 0.25L183.83 0.25Q182.78 0.25 182.23-0.18 181.68-0.6 181.68-1.55L181.68-1.55ZM197.68-1.55L197.68-12.9 201.68-12.9 201.68-0.1Q201.43 0 200.91 0.13 200.38 0.25 199.83 0.25L199.83 0.25Q198.73 0.25 198.21-0.18 197.68-0.6 197.68-1.55L197.68-1.55ZM224.93-3.95L224.93-3.95 224.93-20.75 228.93-20.8 228.93-3.8Q228.93-2.85 228.5-2.27 228.08-1.7 227.18-1.15L227.18-1.15Q226.18-0.5 224.33 0.08 222.48 0.65 220.08 0.65L220.08 0.65Q216.48 0.65 213.73-0.6 210.98-1.85 209.43-4.53 207.88-7.2 207.88-11.45L207.88-11.45Q207.88-15.8 209.41-18.5 210.93-21.2 213.53-22.48 216.13-23.75 219.23-23.75L219.23-23.75Q221.18-23.75 222.93-23.2 224.68-22.65 225.68-21.85L225.68-21.85 225.68-18.15Q224.73-19.1 223.21-19.78 221.68-20.45 219.63-20.45L219.63-20.45Q217.58-20.45 215.83-19.58 214.08-18.7 213.03-16.7 211.98-14.7 211.98-11.35L211.98-11.35Q211.98-6.8 214.18-4.73 216.38-2.65 220.03-2.65L220.03-2.65Q221.78-2.65 222.91-3.03 224.03-3.4 224.93-3.95ZM228.93-30.95L228.93-19.8 224.93-19.75 224.93-32.4Q225.18-32.5 225.71-32.63 226.23-32.75 226.78-32.75L226.78-32.75Q227.88-32.75 228.41-32.33 228.93-31.9 228.93-30.95L228.93-30.95ZM257.98-11.55L257.98-11.55Q257.98-7.85 256.58-5.1 255.18-2.35 252.63-0.85 250.08 0.65 246.63 0.65L246.63 0.65Q243.18 0.65 240.6-0.85 238.03-2.35 236.63-5.1 235.23-7.85 235.23-11.55L235.23-11.55Q235.23-15.3 236.65-18.03 238.08-20.75 240.65-22.25 243.23-23.75 246.63-23.75L246.63-23.75Q250.03-23.75 252.58-22.25 255.13-20.75 256.55-18.03 257.98-15.3 257.98-11.55ZM246.63-20.45L246.63-20.45Q243.28-20.45 241.3-18.07 239.33-15.7 239.33-11.55L239.33-11.55Q239.33-7.35 241.25-5 243.18-2.65 246.63-2.65L246.63-2.65Q250.03-2.65 251.95-5.03 253.88-7.4 253.88-11.55L253.88-11.55Q253.88-15.7 251.95-18.07 250.03-20.45 246.63-20.45ZM284.87-20.4L284.87-20.4Q281.47-20.4 279.22-18.1 276.97-15.8 276.97-11.5L276.97-11.5Q276.97-7.25 279.15-4.95 281.32-2.65 284.87-2.65L284.87-2.65Q286.97-2.65 288.37-3.23 289.77-3.8 290.87-4.55L290.87-4.55Q291.42-4.25 291.77-3.8 292.12-3.35 292.12-2.7L292.12-2.7Q292.12-1.3 290.05-0.33 287.97 0.65 284.87 0.65L284.87 0.65Q281.42 0.65 278.7-0.68 275.97-2 274.42-4.7 272.87-7.4 272.87-11.5L272.87-11.5Q272.87-15.55 274.47-18.28 276.07-21 278.8-22.38 281.52-23.75 284.77-23.75L284.77-23.75Q287.87-23.75 289.9-22.7 291.92-21.65 291.92-20.3L291.92-20.3Q291.92-19.7 291.57-19.25 291.22-18.8 290.67-18.55L290.67-18.55Q289.57-19.3 288.25-19.85 286.92-20.4 284.87-20.4ZM298.07-8.45L298.07-8.45 298.07-13 302.07-13 302.07-8.65Q302.07-5.45 303.77-4.05 305.47-2.65 308.47-2.65L308.47-2.65Q310.47-2.65 311.87-3.08 313.27-3.5 314.07-3.95L314.07-3.95 314.07-13 318.07-13 318.07-4.1Q318.07-3.05 317.8-2.43 317.52-1.8 316.47-1.2L316.47-1.2Q315.37-0.55 313.32 0.05 311.27 0.65 308.42 0.65L308.42 0.65Q305.12 0.65 302.8-0.33 300.47-1.3 299.27-3.33 298.07-5.35 298.07-8.45ZM318.07-21.5L318.07-10.4 314.07-10.4 314.07-23Q314.32-23.1 314.84-23.23 315.37-23.35 315.92-23.35L315.92-23.35Q317.02-23.35 317.55-22.93 318.07-22.5 318.07-21.5L318.07-21.5ZM302.07-21.5L302.07-10.4 298.07-10.4 298.07-23Q298.32-23.1 298.84-23.23 299.37-23.35 299.97-23.35L299.97-23.35Q301.02-23.35 301.55-22.93 302.07-22.5 302.07-21.5L302.07-21.5ZM325.22-30.4L325.22-30.4Q325.22-31.45 325.97-32.18 326.72-32.9 327.82-32.9L327.82-32.9Q328.97-32.9 329.67-32.18 330.37-31.45 330.37-30.4L330.37-30.4Q330.37-29.35 329.67-28.63 328.97-27.9 327.82-27.9L327.82-27.9Q326.72-27.9 325.97-28.63 325.22-29.35 325.22-30.4ZM325.82-1.55L325.82-13.2 329.82-13.2 329.82-0.1Q329.57 0 329.07 0.13 328.57 0.25 327.97 0.25L327.97 0.25Q326.92 0.25 326.37-0.18 325.82-0.6 325.82-1.55L325.82-1.55ZM329.82-21.5L329.82-11.25 325.82-11.25 325.82-23Q326.07-23.1 326.59-23.23 327.12-23.35 327.72-23.35L327.72-23.35Q328.77-23.35 329.29-22.93 329.82-22.5 329.82-21.5L329.82-21.5ZM353.37-3.95L353.37-3.95 353.37-20.75 357.37-20.8 357.37-3.8Q357.37-2.85 356.94-2.27 356.51-1.7 355.62-1.15L355.62-1.15Q354.62-0.5 352.76 0.08 350.92 0.65 348.51 0.65L348.51 0.65Q344.92 0.65 342.17-0.6 339.42-1.85 337.87-4.53 336.31-7.2 336.31-11.45L336.31-11.45Q336.31-15.8 337.84-18.5 339.37-21.2 341.97-22.48 344.56-23.75 347.67-23.75L347.67-23.75Q349.62-23.75 351.37-23.2 353.12-22.65 354.12-21.85L354.12-21.85 354.12-18.15Q353.17-19.1 351.64-19.78 350.12-20.45 348.06-20.45L348.06-20.45Q346.01-20.45 344.26-19.58 342.51-18.7 341.47-16.7 340.42-14.7 340.42-11.35L340.42-11.35Q340.42-6.8 342.62-4.73 344.81-2.65 348.47-2.65L348.47-2.65Q350.22-2.65 351.34-3.03 352.47-3.4 353.37-3.95ZM357.37-30.95L357.37-19.8 353.37-19.75 353.37-32.4Q353.62-32.5 354.14-32.63 354.67-32.75 355.22-32.75L355.22-32.75Q356.31-32.75 356.84-32.33 357.37-31.9 357.37-30.95L357.37-30.95ZM373.21 0.7L373.21 0.7Q368.51 0.7 365.94-1.15 363.36-3 363.36-6.5L363.36-6.5Q363.36-9.75 365.54-11.48 367.71-13.2 371.56-13.55L371.56-13.55 378.66-14.25 378.66-15.65Q378.66-18.15 377.16-19.3 375.66-20.45 373.11-20.45L373.11-20.45Q371.06-20.45 369.19-19.85 367.31-19.25 365.86-18.5L365.86-18.5Q365.46-18.85 365.14-19.33 364.81-19.8 364.81-20.3L364.81-20.3Q364.81-21.6 366.26-22.3L366.26-22.3Q367.61-23 369.39-23.38 371.16-23.75 373.16-23.75L373.16-23.75Q377.51-23.75 380.06-21.8 382.61-19.85 382.61-15.65L382.61-15.65 382.61-3.8Q382.61-2.7 382.19-2.13 381.76-1.55 380.91-1.05L380.91-1.05Q379.71-0.4 377.71 0.15 375.71 0.7 373.21 0.7ZM373.21-2.6L373.21-2.6Q375.31-2.6 376.69-3.03 378.06-3.45 378.66-3.85L378.66-3.85 378.66-11.1 372.46-10.45Q369.86-10.25 368.61-9.3 367.36-8.35 367.36-6.55L367.36-6.55Q367.36-4.7 368.84-3.65 370.31-2.6 373.21-2.6ZM405.66-3.95L405.66-3.95 405.66-20.75 409.66-20.8 409.66-3.8Q409.66-2.85 409.24-2.27 408.81-1.7 407.91-1.15L407.91-1.15Q406.91-0.5 405.06 0.08 403.21 0.65 400.81 0.65L400.81 0.65Q397.21 0.65 394.46-0.6 391.71-1.85 390.16-4.53 388.61-7.2 388.61-11.45L388.61-11.45Q388.61-15.8 390.14-18.5 391.66-21.2 394.26-22.48 396.86-23.75 399.96-23.75L399.96-23.75Q401.91-23.75 403.66-23.2 405.41-22.65 406.41-21.85L406.41-21.85 406.41-18.15Q405.46-19.1 403.94-19.78 402.41-20.45 400.36-20.45L400.36-20.45Q398.31-20.45 396.56-19.58 394.81-18.7 393.76-16.7 392.71-14.7 392.71-11.35L392.71-11.35Q392.71-6.8 394.91-4.73 397.11-2.65 400.76-2.65L400.76-2.65Q402.51-2.65 403.64-3.03 404.76-3.4 405.66-3.95ZM409.66-30.95L409.66-19.8 405.66-19.75 405.66-32.4Q405.91-32.5 406.44-32.63 406.96-32.75 407.51-32.75L407.51-32.75Q408.61-32.75 409.14-32.33 409.66-31.9 409.66-30.95L409.66-30.95ZM438.71-11.55L438.71-11.55Q438.71-7.85 437.31-5.1 435.91-2.35 433.36-0.85 430.81 0.65 427.36 0.65L427.36 0.65Q423.91 0.65 421.33-0.85 418.76-2.35 417.36-5.1 415.96-7.85 415.96-11.55L415.96-11.55Q415.96-15.3 417.38-18.03 418.81-20.75 421.38-22.25 423.96-23.75 427.36-23.75L427.36-23.75Q430.76-23.75 433.31-22.25 435.86-20.75 437.28-18.03 438.71-15.3 438.71-11.55ZM427.36-20.45L427.36-20.45Q424.01-20.45 422.03-18.07 420.06-15.7 420.06-11.55L420.06-11.55Q420.06-7.35 421.98-5 423.91-2.65 427.36-2.65L427.36-2.65Q430.76-2.65 432.68-5.03 434.61-7.4 434.61-11.55L434.61-11.55Q434.61-15.7 432.68-18.07 430.76-20.45 427.36-20.45ZM448.91-18.8L448.91-18.8 448.91-10.9 444.91-10.9 444.91-18.5Q444.91-19.65 445.33-20.33 445.76-21 446.76-21.65L446.76-21.65Q448.06-22.5 450.31-23.13 452.56-23.75 455.31-23.75L455.31-23.75Q459.31-23.75 459.31-21.75L459.31-21.75Q459.31-21.25 459.16-20.83 459.01-20.4 458.76-20.1L458.76-20.1Q458.26-20.2 457.46-20.3 456.66-20.4 455.86-20.4L455.86-20.4Q453.56-20.4 451.81-19.93 450.06-19.45 448.91-18.8ZM444.91-1.55L444.91-13.2 448.91-12.6 448.91-0.1Q448.66 0 448.16 0.13 447.66 0.25 447.06 0.25L447.06 0.25Q446.01 0.25 445.46-0.18 444.91-0.6 444.91-1.55L444.91-1.55ZM482.25-11.35L465.45-9 465.25-12.15 480.35-14.2Q480.15-16.95 478.45-18.73 476.75-20.5 473.75-20.5L473.75-20.5Q470.65-20.5 468.63-18.28 466.6-16.05 466.6-11.9L466.6-11.9 466.6-10.8Q466.95-6.8 469.23-4.73 471.5-2.65 475.45-2.65L475.45-2.65Q477.55-2.65 479.25-3.35 480.95-4.05 481.95-4.85L481.95-4.85Q482.5-4.5 482.83-4.03 483.15-3.55 483.15-2.95L483.15-2.95Q483.15-2 482.08-1.18 481-0.35 479.23 0.15 477.45 0.65 475.25 0.65L475.25 0.65Q471.4 0.65 468.58-0.75 465.75-2.15 464.23-4.93 462.7-7.7 462.7-11.7L462.7-11.7Q462.7-14.55 463.53-16.78 464.35-19 465.83-20.55 467.3-22.1 469.35-22.93 471.4-23.75 473.8-23.75L473.8-23.75Q476.85-23.75 479.18-22.45 481.5-21.15 482.83-18.82 484.15-16.5 484.15-13.5L484.15-13.5Q484.15-12.4 483.65-11.93 483.15-11.45 482.25-11.35L482.25-11.35ZM506.25-6.15L506.25-6.15Q506.25-2.95 503.9-1.15 501.55 0.65 497.1 0.65L497.1 0.65Q493.3 0.65 490.9-0.53 488.5-1.7 488.5-3.1L488.5-3.1Q488.5-3.7 488.83-4.28 489.15-4.85 489.8-5.2L489.8-5.2Q491.15-4.25 492.95-3.45 494.75-2.65 497.05-2.65L497.05-2.65Q502.25-2.65 502.25-6.15L502.25-6.15Q502.25-7.6 501.38-8.53 500.5-9.45 498.8-9.85L498.8-9.85 494.65-10.95Q491.6-11.7 490.2-13.28 488.8-14.85 488.8-17.2L488.8-17.2Q488.8-19.85 490.95-21.8 493.1-23.75 497.5-23.75L497.5-23.75Q499.85-23.75 501.6-23.28 503.35-22.8 504.33-22.03 505.3-21.25 505.3-20.35L505.3-20.35Q505.3-19.7 504.98-19.2 504.65-18.7 504.1-18.45L504.1-18.45Q503.5-18.85 502.58-19.33 501.65-19.8 500.4-20.13 499.15-20.45 497.65-20.45L497.65-20.45Q495.45-20.45 494.1-19.6 492.75-18.75 492.75-17.2L492.75-17.2Q492.75-16.1 493.53-15.28 494.3-14.45 496-14.05L496-14.05 499.45-13.2Q502.85-12.4 504.55-10.68 506.25-8.95 506.25-6.15ZM540.55-11.35L523.75-9 523.55-12.15 538.65-14.2Q538.45-16.95 536.75-18.73 535.05-20.5 532.05-20.5L532.05-20.5Q528.95-20.5 526.92-18.28 524.9-16.05 524.9-11.9L524.9-11.9 524.9-10.8Q525.25-6.8 527.52-4.73 529.8-2.65 533.75-2.65L533.75-2.65Q535.85-2.65 537.55-3.35 539.25-4.05 540.25-4.85L540.25-4.85Q540.8-4.5 541.12-4.03 541.45-3.55 541.45-2.95L541.45-2.95Q541.45-2 540.37-1.18 539.3-0.35 537.52 0.15 535.75 0.65 533.55 0.65L533.55 0.65Q529.7 0.65 526.87-0.75 524.05-2.15 522.52-4.93 521-7.7 521-11.7L521-11.7Q521-14.55 521.82-16.78 522.65-19 524.12-20.55 525.6-22.1 527.65-22.93 529.7-23.75 532.1-23.75L532.1-23.75Q535.15-23.75 537.47-22.45 539.8-21.15 541.12-18.82 542.45-16.5 542.45-13.5L542.45-13.5Q542.45-12.4 541.95-11.93 541.45-11.45 540.55-11.35L540.55-11.35ZM568.09 0.65L568.09 0.65Q565.94 0.65 564.07 0.03 562.19-0.6 561.34-1.35L561.34-1.35 561.34-5.05Q562.34-4.1 563.87-3.38 565.39-2.65 567.54-2.65L567.54-2.65Q571.04-2.65 573.16-4.78 575.29-6.9 575.29-11.6L575.29-11.6Q575.29-14.9 574.22-16.82 573.14-18.75 571.37-19.6 569.59-20.45 567.54-20.45L567.54-20.45Q565.74-20.45 564.49-20 563.24-19.55 562.24-19L562.24-19 562.24-2.4 558.24-2.4 558.24-18.9Q558.24-19.9 558.59-20.5 558.94-21.1 560.04-21.75L560.04-21.75Q561.39-22.5 563.26-23.13 565.14-23.75 567.54-23.75L567.54-23.75Q570.84-23.75 573.51-22.48 576.19-21.2 577.76-18.53 579.34-15.85 579.34-11.6L579.34-11.6Q579.34-7.5 577.91-4.78 576.49-2.05 573.94-0.7 571.39 0.65 568.09 0.65ZM560.39 9.35L560.39 9.35Q559.34 9.35 558.79 8.9 558.24 8.45 558.24 7.5L558.24 7.5 558.24-3.85 562.24-3.75 562.24 9Q561.99 9.1 561.49 9.22 560.99 9.35 560.39 9.35ZM593.79 0.7L593.79 0.7Q589.09 0.7 586.51-1.15 583.94-3 583.94-6.5L583.94-6.5Q583.94-9.75 586.11-11.48 588.29-13.2 592.14-13.55L592.14-13.55 599.24-14.25 599.24-15.65Q599.24-18.15 597.74-19.3 596.24-20.45 593.69-20.45L593.69-20.45Q591.64-20.45 589.76-19.85 587.89-19.25 586.44-18.5L586.44-18.5Q586.04-18.85 585.71-19.33 585.39-19.8 585.39-20.3L585.39-20.3Q585.39-21.6 586.84-22.3L586.84-22.3Q588.19-23 589.96-23.38 591.74-23.75 593.74-23.75L593.74-23.75Q598.09-23.75 600.64-21.8 603.19-19.85 603.19-15.65L603.19-15.65 603.19-3.8Q603.19-2.7 602.76-2.13 602.34-1.55 601.49-1.05L601.49-1.05Q600.29-0.4 598.29 0.15 596.29 0.7 593.79 0.7ZM593.79-2.6L593.79-2.6Q595.89-2.6 597.26-3.03 598.64-3.45 599.24-3.85L599.24-3.85 599.24-11.1 593.04-10.45Q590.44-10.25 589.19-9.3 587.94-8.35 587.94-6.55L587.94-6.55Q587.94-4.7 589.41-3.65 590.89-2.6 593.79-2.6ZM621.18-20.4L621.18-20.4Q617.78-20.4 615.53-18.1 613.28-15.8 613.28-11.5L613.28-11.5Q613.28-7.25 615.46-4.95 617.63-2.65 621.18-2.65L621.18-2.65Q623.28-2.65 624.68-3.23 626.08-3.8 627.18-4.55L627.18-4.55Q627.73-4.25 628.08-3.8 628.43-3.35 628.43-2.7L628.43-2.7Q628.43-1.3 626.36-0.33 624.28 0.65 621.18 0.65L621.18 0.65Q617.73 0.65 615.01-0.68 612.28-2 610.73-4.7 609.18-7.4 609.18-11.5L609.18-11.5Q609.18-15.55 610.78-18.28 612.38-21 615.11-22.38 617.83-23.75 621.08-23.75L621.08-23.75Q624.18-23.75 626.21-22.7 628.23-21.65 628.23-20.3L628.23-20.3Q628.23-19.7 627.88-19.25 627.53-18.8 626.98-18.55L626.98-18.55Q625.88-19.3 624.56-19.85 623.23-20.4 621.18-20.4ZM634.03-30.4L634.03-30.4Q634.03-31.45 634.78-32.18 635.53-32.9 636.63-32.9L636.63-32.9Q637.78-32.9 638.48-32.18 639.18-31.45 639.18-30.4L639.18-30.4Q639.18-29.35 638.48-28.63 637.78-27.9 636.63-27.9L636.63-27.9Q635.53-27.9 634.78-28.63 634.03-29.35 634.03-30.4ZM634.63-1.55L634.63-13.2 638.63-13.2 638.63-0.1Q638.38 0 637.88 0.13 637.38 0.25 636.78 0.25L636.78 0.25Q635.73 0.25 635.18-0.18 634.63-0.6 634.63-1.55L634.63-1.55ZM638.63-21.5L638.63-11.25 634.63-11.25 634.63-23Q634.88-23.1 635.41-23.23 635.93-23.35 636.53-23.35L636.53-23.35Q637.58-23.35 638.11-22.93 638.63-22.5 638.63-21.5L638.63-21.5ZM664.68-11.35L647.88-9 647.68-12.15 662.78-14.2Q662.58-16.95 660.88-18.73 659.18-20.5 656.18-20.5L656.18-20.5Q653.08-20.5 651.05-18.28 649.03-16.05 649.03-11.9L649.03-11.9 649.03-10.8Q649.38-6.8 651.65-4.73 653.93-2.65 657.88-2.65L657.88-2.65Q659.98-2.65 661.68-3.35 663.38-4.05 664.38-4.85L664.38-4.85Q664.93-4.5 665.25-4.03 665.58-3.55 665.58-2.95L665.58-2.95Q665.58-2 664.5-1.18 663.43-0.35 661.65 0.15 659.88 0.65 657.68 0.65L657.68 0.65Q653.83 0.65 651-0.75 648.18-2.15 646.65-4.93 645.13-7.7 645.13-11.7L645.13-11.7Q645.13-14.55 645.95-16.78 646.78-19 648.25-20.55 649.73-22.1 651.78-22.93 653.83-23.75 656.23-23.75L656.23-23.75Q659.28-23.75 661.6-22.45 663.93-21.15 665.25-18.82 666.58-16.5 666.58-13.5L666.58-13.5Q666.58-12.4 666.08-11.93 665.58-11.45 664.68-11.35L664.68-11.35ZM692.38-15.25L692.38-15.25 692.38-10.15 688.38-10.15 688.38-15.05Q688.38-17.85 686.8-19.15 685.23-20.45 682.58-20.45L682.58-20.45Q680.58-20.45 679.03-19.95 677.48-19.45 676.38-18.8L676.38-18.8 676.38-10.15 672.38-10.15 672.38-18.6Q672.38-19.65 672.8-20.33 673.23-21 674.28-21.65L674.28-21.65Q675.58-22.4 677.73-23.08 679.88-23.75 682.58-23.75L682.58-23.75Q687.13-23.75 689.75-21.68 692.38-19.6 692.38-15.25ZM672.38-1.55L672.38-12.9 676.38-12.9 676.38-0.1Q676.13 0 675.63 0.13 675.13 0.25 674.53 0.25L674.53 0.25Q673.48 0.25 672.93-0.18 672.38-0.6 672.38-1.55L672.38-1.55ZM688.38-1.55L688.38-12.9 692.38-12.9 692.38-0.1Q692.13 0 691.6 0.13 691.08 0.25 690.53 0.25L690.53 0.25Q689.43 0.25 688.9-0.18 688.38-0.6 688.38-1.55L688.38-1.55ZM699.92-6.05L699.92-13.2 703.92-13.2 703.92-6.3Q703.92-4.3 705.07-3.48 706.22-2.65 708.22-2.65L708.22-2.65Q709.07-2.65 710.12-2.95 711.17-3.25 711.87-3.65L711.87-3.65Q712.17-3.35 712.42-2.9 712.67-2.45 712.67-1.85L712.67-1.85Q712.67-0.75 711.37-0.05 710.07 0.65 707.77 0.65L707.77 0.65Q704.27 0.65 702.1-0.9 699.92-2.45 699.92-6.05L699.92-6.05ZM711.07-19.3L701.97-19.3 701.97-22.6 712.12-22.6Q712.27-22.4 712.42-21.95 712.57-21.5 712.57-21L712.57-21Q712.57-20.2 712.17-19.75 711.77-19.3 711.07-19.3L711.07-19.3ZM703.92-28.35L703.92-11.7 699.92-11.7 699.92-29.8Q700.17-29.9 700.7-30.03 701.22-30.15 701.82-30.15L701.82-30.15Q702.87-30.15 703.4-29.73 703.92-29.3 703.92-28.35L703.92-28.35ZM736.72-11.35L719.92-9 719.72-12.15 734.82-14.2Q734.62-16.95 732.92-18.73 731.22-20.5 728.22-20.5L728.22-20.5Q725.12-20.5 723.1-18.28 721.07-16.05 721.07-11.9L721.07-11.9 721.07-10.8Q721.42-6.8 723.7-4.73 725.97-2.65 729.92-2.65L729.92-2.65Q732.02-2.65 733.72-3.35 735.42-4.05 736.42-4.85L736.42-4.85Q736.97-4.5 737.3-4.03 737.62-3.55 737.62-2.95L737.62-2.95Q737.62-2 736.55-1.18 735.47-0.35 733.7 0.15 731.92 0.65 729.72 0.65L729.72 0.65Q725.87 0.65 723.05-0.75 720.22-2.15 718.7-4.93 717.17-7.7 717.17-11.7L717.17-11.7Q717.17-14.55 718-16.78 718.82-19 720.3-20.55 721.77-22.1 723.82-22.93 725.87-23.75 728.27-23.75L728.27-23.75Q731.32-23.75 733.65-22.45 735.97-21.15 737.3-18.82 738.62-16.5 738.62-13.5L738.62-13.5Q738.62-12.4 738.12-11.93 737.62-11.45 736.72-11.35L736.72-11.35ZM760.72-6.15L760.72-6.15Q760.72-2.95 758.37-1.15 756.02 0.65 751.57 0.65L751.57 0.65Q747.77 0.65 745.37-0.53 742.97-1.7 742.97-3.1L742.97-3.1Q742.97-3.7 743.29-4.28 743.62-4.85 744.27-5.2L744.27-5.2Q745.62-4.25 747.42-3.45 749.22-2.65 751.52-2.65L751.52-2.65Q756.72-2.65 756.72-6.15L756.72-6.15Q756.72-7.6 755.84-8.53 754.97-9.45 753.27-9.85L753.27-9.85 749.12-10.95Q746.07-11.7 744.67-13.28 743.27-14.85 743.27-17.2L743.27-17.2Q743.27-19.85 745.42-21.8 747.57-23.75 751.97-23.75L751.97-23.75Q754.32-23.75 756.07-23.28 757.82-22.8 758.79-22.03 759.77-21.25 759.77-20.35L759.77-20.35Q759.77-19.7 759.44-19.2 759.12-18.7 758.57-18.45L758.57-18.45Q757.97-18.85 757.04-19.33 756.12-19.8 754.87-20.13 753.62-20.45 752.12-20.45L752.12-20.45Q749.92-20.45 748.57-19.6 747.22-18.75 747.22-17.2L747.22-17.2Q747.22-16.1 747.99-15.28 748.77-14.45 750.47-14.05L750.47-14.05 753.92-13.2Q757.32-12.4 759.02-10.68 760.72-8.95 760.72-6.15Z" opacity="1" transform="matrix(1,0,0,1,0,0)" fill="#ffffff" class="slogan-text-1" data-fill-palette-color="secondary" id="text-1"></path></svg></g></svg></g></svg></g></svg></g><g transform="matrix(1,0,0,1,412.1435389817452,0)"><svg viewBox="0 0 101.3556219002638 138.17370301078475" height="138.17370301078475" width="101.3556219002638"><g><svg xmlns="http://www.w3.org/2000/svg" viewBox="10.987553580489704 2 44.0124464195103 60.00025046791868" x="0" y="0" height="138.17370301078475" width="101.3556219002638" class="icon-icon-0" data-fill-palette-color="accent" id="icon-0"><g data-name="outline create copy" fill="#645e40" data-fill-palette-color="accent"><path d="M11.26 61.68A1 1 0 0 0 12 62h3a1 1 0 0 0 1-0.85L18.44 45h3.64L25 61.18A1 1 0 0 0 26 62h3a1 1 0 0 0 0.75-0.33 1 1 0 0 0 0.24-0.78L26.1 25.83l4.52-0.75a4.63 4.63 0 0 0 0.17 0.61 4 4 0 0 0 2.57 2.36l0.2 0.06-0.37 14.81L30.65 60.86a1 1 0 0 0 1 1.14h3a1 1 0 0 0 1-0.79l3.83-18s0-0.09 0-0.13L40 35.77l4.62 25.41a1 1 0 0 0 1 0.82h3a1 1 0 0 0 1-1.13L45.31 27.36 51.76 29A1 1 0 0 0 52 29a1 1 0 0 0 1-0.68l0-0.16V62h2V28h-2l0.9-2.68a1 1 0 0 0-0.54-1.23l-8.09-3.6L45.64 16l0-4a1 1 0 0 0-0.29-0.72 1 1 0 0 0-0.71-0.29H43V10a4 4 0 0 0 0.5 0.05A3.5 3.5 0 0 0 47 6.5v-1A3.45 3.45 0 0 0 46.65 4H48V2H43v0A3.5 3.5 0 0 0 40 5.5v1A3.5 3.5 0 0 0 41.06 9H41v2.06a7.51 7.51 0 0 0-5.12 3l-0.74 1.16L32.34 20H26V14a3 3 0 0 0-0.87-2.14A3 3 0 0 0 23 11h-0.75L22 11V10a4 4 0 0 0 0.5 0.05A3.5 3.5 0 0 0 26 6.5v-1a3.5 3.5 0 0 0-3-3.45h0a1.77 1.77 0 0 0-0.31 0h-0.34a0.8 0.8 0 0 0-0.23 0h0a6.46 6.46 0 0 0-6 5.47A4 4 0 0 0 14 11a4 4 0 0 0 2 3.45 7.44 7.44 0 0 0-1.15 3.19L14 24.76l0 0.08-3 19a1 1 0 0 0 0.23 0.81A1 1 0 0 0 12 45h0.33L11 60.92A1 1 0 0 0 11.26 61.68ZM42 5.5a1.5 1.5 0 0 1 3 0v1a1.5 1.5 0 0 1-3 0ZM26.83 60L24.11 45h2.11l1.66 15Zm7 0h-1l2.39-16.86a0.49 0.49 0 0 0 0-0.12l0.36-14.31 3 0.89-1 13.26Zm12.64 0L40.91 29.39l0-0.07 1-3A1.17 1.17 0 0 0 42 26h1.13L47.5 60Zm5.29-34.46l-0.42 1.27L45 25.23 45 25l0.17-2.36ZM36.84 16.25l0.68-1.06A5.49 5.49 0 0 1 41.89 13h1.76v2.93L43.07 24H38.69l-1.29-0.52 3.15-6-1.78-0.92-3.66 7a1 1 0 0 0 0 0.81 1 1 0 0 0 0.57 0.58l4.12 1.65-0.39 1.18-5.42-1.62A2 2 0 0 1 32.65 25a2 2 0 0 1 0.13-1.74ZM31.18 22l-0.12 0.21a3.63 3.63 0 0 0-0.37 0.83L26 23.82V22ZM23 13a1 1 0 0 1 0.71 0.29A1 1 0 0 1 24 14V24H20.15L21 17.12l-2-0.24L18.14 24h-2l0.68-6.13a5.42 5.42 0 0 1 1.06-2.68A5.5 5.5 0 0 1 22.26 13ZM19.86 31.57l-1.31 0.87L16.39 26h1.88ZM24 5.5v1a1.5 1.5 0 0 1-3 0v-1a1.5 1.5 0 0 1 3 0ZM17.34 9.12a1 1 0 0 0 0.68-0.9A4.41 4.41 0 0 1 19 5.7v0.8A3.5 3.5 0 0 0 20.06 9H20v2.36A7.57 7.57 0 0 0 17.16 13l0.07-0.19A2 2 0 0 1 16 11 2 2 0 0 1 17.34 9.12Zm-2 20.07l1.72 5.13a1 1 0 0 0 0.63 0.63A1.13 1.13 0 0 0 18 35a1 1 0 0 0 0.56-0.17l3-2a1 1 0 0 0 0.4-1.1L20.35 26H24.1l1.79 17H13.17ZM16.42 45L14.14 60H13.09l1.25-15Z" fill="#ffffff" data-fill-palette-color="accent"></path></g></svg></g></svg></g></svg></g><defs></defs></svg><rect width="395.52" height="106.42756050653618" fill="none" stroke="none" visibility="hidden"></rect></g></svg></g></svg>