<svg xmlns="http://www.w3.org/2000/svg" xmlns:xlink="http://www.w3.org/1999/xlink" width="500" zoomAndPan="magnify" viewBox="0 0 375 374.999991" height="500" preserveAspectRatio="xMidYMid meet" version="1.0"><defs><clipPath id="0b24908e31"><path d="M 63.492188 0.242188 L 335.40625 0.242188 L 335.40625 373.234375 L 63.492188 373.234375 Z M 63.492188 0.242188 " clip-rule="nonzero"/></clipPath></defs><rect x="-37.5" width="450" fill="#ffffff" y="-37.499999" height="449.999989" fill-opacity="1"/><rect x="-37.5" width="450" fill="#ffffff" y="-37.499999" height="449.999989" fill-opacity="1"/><g clip-path="url(#0b24908e31)"><path fill="#645e40" d="M 63.476562 371.246094 C 64.066406 371.882812 64.765625 372.375 65.566406 372.722656 C 66.367188 373.070312 67.203125 373.238281 68.074219 373.234375 L 86.726562 373.234375 C 87.097656 373.238281 87.46875 373.207031 87.835938 373.148438 C 88.199219 373.085938 88.558594 372.992188 88.910156 372.863281 C 89.257812 372.738281 89.59375 372.582031 89.914062 372.394531 C 90.238281 372.207031 90.539062 371.996094 90.824219 371.753906 C 91.105469 371.511719 91.367188 371.25 91.601562 370.960938 C 91.839844 370.675781 92.046875 370.367188 92.226562 370.042969 C 92.410156 369.71875 92.558594 369.378906 92.679688 369.027344 C 92.800781 368.675781 92.886719 368.316406 92.945312 367.949219 L 108.113281 267.550781 L 130.742188 267.550781 L 148.898438 368.136719 C 149.03125 368.859375 149.28125 369.539062 149.65625 370.171875 C 150.03125 370.808594 150.5 371.359375 151.070312 371.824219 C 151.640625 372.292969 152.273438 372.644531 152.96875 372.886719 C 153.664062 373.128906 154.378906 373.246094 155.113281 373.234375 L 173.765625 373.234375 C 174.652344 373.242188 175.503906 373.066406 176.316406 372.707031 C 177.128906 372.351562 177.832031 371.839844 178.429688 371.183594 C 179.011719 370.515625 179.433594 369.761719 179.691406 368.917969 C 179.953125 368.070312 180.027344 367.210938 179.921875 366.332031 L 155.734375 148.382812 L 183.835938 143.71875 C 184.101562 145.007812 184.457031 146.269531 184.894531 147.511719 C 185.585938 149.257812 186.460938 150.90625 187.527344 152.453125 C 188.589844 154 189.816406 155.410156 191.199219 156.679688 C 192.582031 157.949219 194.089844 159.050781 195.722656 159.980469 C 197.355469 160.90625 199.074219 161.640625 200.871094 162.179688 L 202.117188 162.554688 L 199.816406 254.621094 L 184.023438 366.148438 C 183.960938 366.589844 183.945312 367.035156 183.980469 367.480469 C 184.011719 367.925781 184.09375 368.363281 184.222656 368.792969 C 184.351562 369.222656 184.523438 369.632812 184.738281 370.023438 C 184.953125 370.417969 185.210938 370.78125 185.507812 371.117188 C 185.800781 371.453125 186.128906 371.753906 186.488281 372.019531 C 186.847656 372.285156 187.234375 372.511719 187.640625 372.691406 C 188.050781 372.875 188.472656 373.011719 188.914062 373.101562 C 189.351562 373.195312 189.792969 373.238281 190.242188 373.234375 L 208.890625 373.234375 C 209.613281 373.25 210.320312 373.144531 211.003906 372.914062 C 211.691406 372.683594 212.316406 372.34375 212.882812 371.898438 C 213.453125 371.449219 213.925781 370.917969 214.308594 370.304688 C 214.691406 369.691406 214.957031 369.03125 215.109375 368.324219 L 238.921875 256.425781 C 238.921875 256.425781 238.921875 255.863281 238.921875 255.617188 L 242.152344 210.171875 L 270.875 368.136719 C 271.007812 368.859375 271.261719 369.539062 271.636719 370.171875 C 272.007812 370.808594 272.480469 371.359375 273.050781 371.824219 C 273.621094 372.292969 274.25 372.644531 274.945312 372.886719 C 275.640625 373.128906 276.355469 373.246094 277.09375 373.234375 L 295.746094 373.234375 C 296.1875 373.238281 296.628906 373.195312 297.0625 373.101562 C 297.5 373.011719 297.921875 372.878906 298.328125 372.695312 C 298.734375 372.515625 299.113281 372.292969 299.472656 372.03125 C 299.832031 371.769531 300.160156 371.46875 300.453125 371.136719 C 300.746094 370.804688 301.003906 370.445312 301.222656 370.054688 C 301.4375 369.667969 301.613281 369.261719 301.742188 368.835938 C 301.871094 368.410156 301.957031 367.976562 301.992188 367.535156 C 302.03125 367.089844 302.019531 366.648438 301.960938 366.207031 L 275.167969 157.890625 L 315.265625 168.085938 C 315.761719 168.148438 316.261719 168.148438 316.757812 168.085938 C 317.4375 168.121094 318.101562 168.050781 318.753906 167.867188 C 319.410156 167.683594 320.015625 167.402344 320.578125 167.019531 C 321.140625 166.636719 321.625 166.175781 322.035156 165.636719 C 322.445312 165.09375 322.757812 164.503906 322.976562 163.859375 L 322.976562 162.867188 L 322.976562 373.234375 L 335.410156 373.234375 L 335.410156 161.871094 L 322.976562 161.871094 L 328.570312 145.210938 C 328.691406 144.847656 328.78125 144.476562 328.832031 144.097656 C 328.886719 143.71875 328.902344 143.339844 328.886719 142.957031 C 328.867188 142.574219 328.816406 142.195312 328.730469 141.824219 C 328.640625 141.453125 328.519531 141.089844 328.367188 140.738281 C 328.214844 140.390625 328.027344 140.054688 327.8125 139.738281 C 327.597656 139.421875 327.355469 139.128906 327.085938 138.859375 C 326.816406 138.585938 326.523438 138.34375 326.210938 138.125 C 325.894531 137.90625 325.5625 137.71875 325.214844 137.5625 L 274.917969 115.183594 L 277.21875 87.273438 L 277.21875 62.40625 C 277.230469 61.570312 277.082031 60.761719 276.769531 59.984375 C 276.457031 59.210938 276.003906 58.523438 275.414062 57.929688 C 274.828125 57.347656 274.152344 56.902344 273.386719 56.589844 C 272.621094 56.277344 271.828125 56.121094 271 56.128906 L 260.804688 56.128906 L 260.804688 49.972656 C 261.835938 50.140625 262.871094 50.246094 263.914062 50.285156 C 264.632812 50.285156 265.351562 50.25 266.066406 50.175781 C 266.78125 50.105469 267.492188 50 268.195312 49.859375 C 268.902344 49.71875 269.597656 49.539062 270.285156 49.332031 C 270.972656 49.121094 271.648438 48.875 272.3125 48.597656 C 272.976562 48.320312 273.625 48.011719 274.257812 47.667969 C 274.890625 47.328125 275.503906 46.957031 276.101562 46.550781 C 276.695312 46.148438 277.269531 45.71875 277.824219 45.257812 C 278.375 44.800781 278.90625 44.3125 279.410156 43.800781 C 279.914062 43.289062 280.394531 42.753906 280.847656 42.195312 C 281.296875 41.632812 281.71875 41.054688 282.113281 40.453125 C 282.507812 39.851562 282.871094 39.230469 283.207031 38.59375 C 283.539062 37.957031 283.839844 37.304688 284.105469 36.636719 C 284.375 35.96875 284.609375 35.289062 284.808594 34.601562 C 285.011719 33.910156 285.175781 33.210938 285.308594 32.503906 C 285.441406 31.796875 285.535156 31.085938 285.597656 30.367188 C 285.65625 29.652344 285.683594 28.933594 285.671875 28.214844 L 285.671875 22 C 285.660156 18.722656 284.933594 15.617188 283.496094 12.671875 L 291.890625 12.671875 L 291.890625 0.242188 L 260.804688 0.242188 C 259.511719 0.425781 258.246094 0.726562 257.003906 1.144531 C 255.765625 1.558594 254.574219 2.078125 253.425781 2.710938 C 252.28125 3.339844 251.203125 4.066406 250.1875 4.890625 C 249.175781 5.714844 248.242188 6.625 247.390625 7.617188 C 246.539062 8.609375 245.785156 9.667969 245.125 10.796875 C 244.464844 11.925781 243.914062 13.101562 243.464844 14.332031 C 243.019531 15.558594 242.683594 16.816406 242.464844 18.105469 C 242.242188 19.394531 242.140625 20.691406 242.152344 22 L 242.152344 28.214844 C 242.15625 29.664062 242.304688 31.097656 242.59375 32.519531 C 242.886719 33.9375 243.3125 35.316406 243.878906 36.652344 C 244.445312 37.984375 245.136719 39.25 245.957031 40.445312 C 246.773438 41.644531 247.703125 42.746094 248.742188 43.757812 L 248.371094 43.757812 L 248.371094 56.5625 C 245.222656 56.953125 242.148438 57.660156 239.144531 58.675781 C 236.140625 59.695312 233.269531 61.007812 230.535156 62.609375 C 227.796875 64.214844 225.25 66.074219 222.894531 68.199219 C 220.539062 70.320312 218.417969 72.660156 216.539062 75.210938 L 211.9375 82.421875 L 194.53125 112.136719 L 155.113281 112.136719 L 155.113281 74.839844 C 155.125 73.605469 155.015625 72.386719 154.785156 71.175781 C 154.554688 69.964844 154.207031 68.789062 153.742188 67.644531 C 153.277344 66.503906 152.707031 65.417969 152.027344 64.390625 C 151.347656 63.363281 150.574219 62.410156 149.707031 61.535156 C 147.941406 59.800781 145.910156 58.472656 143.617188 57.546875 C 141.320312 56.617188 138.9375 56.167969 136.464844 56.1875 L 130.246094 56.1875 L 130.246094 49.972656 C 131.277344 50.140625 132.3125 50.246094 133.355469 50.285156 C 134.074219 50.285156 134.792969 50.25 135.507812 50.175781 C 136.222656 50.105469 136.933594 50 137.636719 49.859375 C 138.34375 49.71875 139.039062 49.539062 139.726562 49.332031 C 140.414062 49.121094 141.089844 48.875 141.753906 48.597656 C 142.417969 48.320312 143.066406 48.011719 143.699219 47.667969 C 144.332031 47.328125 144.945312 46.957031 145.542969 46.550781 C 146.136719 46.148438 146.710938 45.71875 147.265625 45.257812 C 147.816406 44.800781 148.347656 44.3125 148.851562 43.800781 C 149.355469 43.289062 149.835938 42.753906 150.289062 42.195312 C 150.738281 41.632812 151.160156 41.054688 151.554688 40.453125 C 151.949219 39.851562 152.3125 39.230469 152.648438 38.59375 C 152.980469 37.957031 153.28125 37.304688 153.546875 36.636719 C 153.816406 35.96875 154.050781 35.289062 154.25 34.601562 C 154.453125 33.910156 154.617188 33.210938 154.75 32.503906 C 154.882812 31.796875 154.976562 31.085938 155.039062 30.367188 C 155.097656 29.652344 155.125 28.933594 155.113281 28.214844 L 155.113281 22 C 155.109375 20.703125 154.988281 19.421875 154.753906 18.148438 C 154.519531 16.875 154.175781 15.632812 153.71875 14.421875 C 153.265625 13.210938 152.707031 12.050781 152.042969 10.941406 C 151.378906 9.828125 150.625 8.785156 149.773438 7.808594 C 148.925781 6.832031 147.996094 5.9375 146.988281 5.128906 C 145.980469 4.316406 144.90625 3.601562 143.773438 2.984375 C 142.636719 2.363281 141.453125 1.851562 140.226562 1.441406 C 139 1.03125 137.742188 0.734375 136.464844 0.550781 C 135.820312 0.496094 135.179688 0.496094 134.535156 0.550781 L 132.421875 0.550781 C 131.945312 0.480469 131.46875 0.480469 130.992188 0.550781 C 129.855469 0.621094 128.726562 0.734375 127.597656 0.898438 C 126.472656 1.0625 125.355469 1.273438 124.25 1.535156 C 123.140625 1.792969 122.046875 2.097656 120.964844 2.449219 C 119.882812 2.800781 118.816406 3.199219 117.769531 3.640625 C 116.71875 4.082031 115.691406 4.570312 114.6875 5.101562 C 113.679688 5.628906 112.695312 6.203125 111.738281 6.816406 C 110.78125 7.429688 109.847656 8.082031 108.945312 8.773438 C 108.042969 9.464844 107.171875 10.195312 106.332031 10.960938 C 105.488281 11.726562 104.683594 12.527344 103.910156 13.363281 C 103.136719 14.199219 102.402344 15.066406 101.703125 15.960938 C 101.003906 16.859375 100.34375 17.785156 99.722656 18.738281 C 99.101562 19.695312 98.523438 20.671875 97.988281 21.675781 C 97.449219 22.675781 96.957031 23.703125 96.503906 24.746094 C 96.054688 25.789062 95.648438 26.851562 95.289062 27.933594 C 94.929688 29.011719 94.617188 30.105469 94.347656 31.210938 C 94.082031 32.316406 93.863281 33.429688 93.691406 34.554688 C 92.710938 35.078125 91.769531 35.660156 90.871094 36.308594 C 89.96875 36.953125 89.113281 37.660156 88.308594 38.421875 C 87.5 39.179688 86.75 39.992188 86.050781 40.855469 C 85.351562 41.71875 84.714844 42.621094 84.136719 43.570312 C 83.5625 44.515625 83.050781 45.496094 82.605469 46.511719 C 82.15625 47.527344 81.78125 48.570312 81.476562 49.636719 C 81.167969 50.699219 80.933594 51.78125 80.773438 52.878906 C 80.613281 53.976562 80.523438 55.082031 80.507812 56.1875 C 80.511719 57.273438 80.585938 58.351562 80.730469 59.421875 C 80.875 60.496094 81.089844 61.554688 81.375 62.601562 C 81.65625 63.644531 82.007812 64.667969 82.421875 65.667969 C 82.839844 66.667969 83.320312 67.636719 83.863281 68.574219 C 84.40625 69.507812 85.007812 70.40625 85.667969 71.265625 C 86.328125 72.125 87.042969 72.933594 87.808594 73.699219 C 88.574219 74.464844 89.386719 75.175781 90.246094 75.835938 C 91.105469 76.496094 92.003906 77.09375 92.945312 77.636719 C 91.003906 80.621094 89.429688 83.789062 88.222656 87.140625 C 87.015625 90.488281 86.207031 93.929688 85.792969 97.46875 L 80.507812 141.730469 L 80.507812 142.226562 L 61.859375 260.339844 C 61.714844 261.246094 61.765625 262.136719 62.015625 263.015625 C 62.265625 263.898438 62.691406 264.683594 63.289062 265.375 C 63.886719 266.074219 64.601562 266.613281 65.441406 266.996094 C 66.277344 267.375 67.15625 267.5625 68.074219 267.550781 L 70.128906 267.550781 L 61.859375 366.519531 C 61.785156 367.386719 61.890625 368.230469 62.171875 369.050781 C 62.453125 369.875 62.886719 370.605469 63.476562 371.246094 Z M 254.585938 22 C 254.585938 21.386719 254.648438 20.78125 254.765625 20.179688 C 254.886719 19.578125 255.0625 18.996094 255.296875 18.429688 C 255.53125 17.863281 255.820312 17.328125 256.160156 16.816406 C 256.5 16.308594 256.886719 15.835938 257.320312 15.40625 C 257.753906 14.972656 258.222656 14.585938 258.730469 14.246094 C 259.242188 13.90625 259.777344 13.617188 260.34375 13.382812 C 260.910156 13.148438 261.492188 12.972656 262.09375 12.851562 C 262.695312 12.734375 263.300781 12.671875 263.914062 12.671875 C 264.527344 12.671875 265.132812 12.734375 265.734375 12.851562 C 266.332031 12.972656 266.917969 13.148438 267.480469 13.382812 C 268.046875 13.617188 268.585938 13.90625 269.09375 14.246094 C 269.601562 14.585938 270.074219 14.972656 270.507812 15.40625 C 270.941406 15.835938 271.328125 16.308594 271.667969 16.816406 C 272.007812 17.328125 272.292969 17.863281 272.527344 18.429688 C 272.761719 18.996094 272.941406 19.578125 273.058594 20.179688 C 273.179688 20.78125 273.238281 21.386719 273.238281 22 L 273.238281 28.214844 C 273.238281 28.828125 273.179688 29.433594 273.058594 30.035156 C 272.941406 30.632812 272.761719 31.21875 272.527344 31.785156 C 272.292969 32.347656 272.007812 32.886719 271.667969 33.394531 C 271.328125 33.90625 270.941406 34.375 270.507812 34.808594 C 270.074219 35.242188 269.601562 35.628906 269.09375 35.96875 C 268.585938 36.308594 268.046875 36.59375 267.480469 36.828125 C 266.917969 37.0625 266.332031 37.242188 265.734375 37.359375 C 265.132812 37.480469 264.527344 37.539062 263.914062 37.539062 C 263.300781 37.539062 262.695312 37.480469 262.09375 37.359375 C 261.492188 37.242188 260.910156 37.0625 260.34375 36.828125 C 259.777344 36.59375 259.242188 36.308594 258.730469 35.96875 C 258.222656 35.628906 257.753906 35.242188 257.320312 34.808594 C 256.886719 34.375 256.5 33.90625 256.160156 33.394531 C 255.820312 32.886719 255.53125 32.347656 255.296875 31.785156 C 255.0625 31.21875 254.886719 30.632812 254.765625 30.035156 C 254.648438 29.433594 254.585938 28.828125 254.585938 28.214844 Z M 160.273438 360.800781 L 143.363281 267.550781 L 156.480469 267.550781 L 166.800781 360.800781 Z M 203.792969 360.800781 L 197.578125 360.800781 L 212.4375 255.988281 C 212.464844 255.742188 212.464844 255.492188 212.4375 255.242188 L 214.675781 166.285156 L 233.324219 171.816406 L 227.109375 254.25 Z M 282.378906 360.800781 L 247.8125 170.511719 L 247.8125 170.078125 L 254.027344 151.425781 C 254.308594 150.789062 254.496094 150.128906 254.585938 149.4375 L 261.613281 149.4375 L 288.78125 360.800781 Z M 315.265625 146.578125 L 312.65625 154.472656 L 273.238281 144.652344 L 273.238281 143.222656 L 274.296875 128.550781 Z M 222.507812 88.828125 L 226.734375 82.238281 C 228.320312 80.128906 230.125 78.234375 232.148438 76.542969 C 234.171875 74.855469 236.363281 73.421875 238.71875 72.238281 C 241.078125 71.058594 243.539062 70.164062 246.101562 69.550781 C 248.667969 68.941406 251.265625 68.632812 253.902344 68.621094 L 264.847656 68.621094 L 264.847656 86.835938 L 261.238281 137.003906 L 234.007812 137.003906 L 225.988281 133.773438 L 245.574219 96.472656 L 234.507812 90.753906 L 211.753906 134.269531 C 211.398438 135.070312 211.21875 135.910156 211.21875 136.785156 C 211.21875 137.664062 211.398438 138.503906 211.753906 139.304688 C 212.058594 140.128906 212.523438 140.855469 213.140625 141.484375 C 213.757812 142.113281 214.476562 142.585938 215.296875 142.910156 L 240.910156 153.167969 L 238.484375 160.503906 L 204.789062 150.433594 C 203.863281 150.191406 202.980469 149.847656 202.132812 149.40625 C 201.289062 148.960938 200.503906 148.425781 199.78125 147.800781 C 199.058594 147.175781 198.417969 146.476562 197.855469 145.703125 C 197.292969 144.929688 196.828125 144.101562 196.457031 143.222656 C 196.113281 142.347656 195.867188 141.445312 195.726562 140.519531 C 195.585938 139.589844 195.550781 138.65625 195.621094 137.71875 C 195.691406 136.785156 195.863281 135.867188 196.140625 134.96875 C 196.417969 134.070312 196.792969 133.214844 197.265625 132.40625 Z M 187.320312 124.570312 L 186.574219 125.878906 C 185.589844 127.5 184.824219 129.21875 184.273438 131.035156 L 155.113281 135.886719 L 155.113281 124.570312 Z M 136.464844 68.621094 C 137.289062 68.617188 138.085938 68.773438 138.851562 69.085938 C 139.613281 69.394531 140.289062 69.84375 140.878906 70.425781 C 141.460938 71.011719 141.90625 71.6875 142.21875 72.453125 C 142.53125 73.21875 142.683594 74.011719 142.679688 74.839844 L 142.679688 137.003906 L 118.746094 137.003906 L 124.027344 94.234375 L 111.59375 92.742188 L 106.25 137.003906 L 93.8125 137.003906 L 98.042969 98.898438 C 98.367188 95.875 99.089844 92.949219 100.207031 90.121094 C 101.328125 87.292969 102.800781 84.664062 104.632812 82.238281 C 106.222656 80.128906 108.03125 78.226562 110.058594 76.539062 C 112.089844 74.847656 114.285156 73.414062 116.648438 72.230469 C 119.011719 71.050781 121.476562 70.15625 124.046875 69.546875 C 126.617188 68.9375 129.222656 68.628906 131.863281 68.621094 Z M 116.941406 184.0625 L 108.796875 189.472656 L 95.367188 149.4375 L 107.054688 149.4375 Z M 142.679688 22 L 142.679688 28.214844 C 142.679688 28.828125 142.621094 29.433594 142.5 30.035156 C 142.382812 30.632812 142.203125 31.21875 141.96875 31.785156 C 141.734375 32.347656 141.449219 32.886719 141.109375 33.394531 C 140.769531 33.90625 140.382812 34.375 139.949219 34.808594 C 139.515625 35.242188 139.042969 35.628906 138.535156 35.96875 C 138.027344 36.308594 137.488281 36.59375 136.921875 36.828125 C 136.359375 37.0625 135.773438 37.242188 135.175781 37.359375 C 134.574219 37.480469 133.96875 37.539062 133.355469 37.539062 C 132.742188 37.539062 132.136719 37.480469 131.535156 37.359375 C 130.933594 37.242188 130.351562 37.0625 129.785156 36.828125 C 129.21875 36.59375 128.683594 36.308594 128.171875 35.96875 C 127.664062 35.628906 127.195312 35.242188 126.761719 34.808594 C 126.328125 34.375 125.941406 33.90625 125.601562 33.394531 C 125.261719 32.886719 124.972656 32.347656 124.738281 31.785156 C 124.503906 31.21875 124.328125 30.632812 124.207031 30.035156 C 124.089844 29.433594 124.027344 28.828125 124.027344 28.214844 L 124.027344 22 C 124.027344 21.386719 124.089844 20.78125 124.207031 20.179688 C 124.328125 19.578125 124.503906 18.996094 124.738281 18.429688 C 124.972656 17.863281 125.261719 17.328125 125.601562 16.816406 C 125.941406 16.308594 126.328125 15.835938 126.761719 15.40625 C 127.195312 14.972656 127.664062 14.585938 128.171875 14.246094 C 128.683594 13.90625 129.21875 13.617188 129.785156 13.382812 C 130.351562 13.148438 130.933594 12.972656 131.535156 12.851562 C 132.136719 12.734375 132.742188 12.671875 133.355469 12.671875 C 133.96875 12.671875 134.574219 12.734375 135.175781 12.851562 C 135.773438 12.972656 136.359375 13.148438 136.921875 13.382812 C 137.488281 13.617188 138.027344 13.90625 138.535156 14.246094 C 139.042969 14.585938 139.515625 14.972656 139.949219 15.40625 C 140.382812 15.835938 140.769531 16.308594 141.109375 16.816406 C 141.449219 17.328125 141.734375 17.863281 141.96875 18.429688 C 142.203125 18.996094 142.382812 19.578125 142.5 20.179688 C 142.621094 20.78125 142.679688 21.386719 142.679688 22 Z M 101.273438 44.503906 C 101.867188 44.304688 102.417969 44.019531 102.925781 43.65625 C 103.433594 43.289062 103.875 42.855469 104.253906 42.359375 C 104.628906 41.859375 104.925781 41.316406 105.136719 40.726562 C 105.351562 40.140625 105.472656 39.53125 105.503906 38.90625 C 105.671875 36.042969 106.277344 33.273438 107.316406 30.597656 C 108.359375 27.921875 109.785156 25.46875 111.59375 23.242188 L 111.59375 28.214844 C 111.597656 29.664062 111.746094 31.097656 112.035156 32.519531 C 112.328125 33.9375 112.753906 35.316406 113.320312 36.652344 C 113.886719 37.984375 114.578125 39.25 115.398438 40.445312 C 116.214844 41.644531 117.144531 42.746094 118.183594 43.757812 L 117.8125 43.757812 L 117.8125 58.425781 C 111.171875 60.519531 105.285156 63.917969 100.15625 68.621094 L 100.589844 67.441406 C 99.476562 66.976562 98.449219 66.363281 97.515625 65.597656 C 96.578125 64.835938 95.769531 63.953125 95.089844 62.953125 C 94.414062 61.953125 93.890625 60.878906 93.523438 59.726562 C 93.160156 58.578125 92.964844 57.398438 92.945312 56.1875 C 92.945312 55.550781 92.996094 54.914062 93.097656 54.285156 C 93.199219 53.65625 93.347656 53.035156 93.542969 52.425781 C 93.738281 51.820312 93.980469 51.230469 94.265625 50.660156 C 94.554688 50.089844 94.882812 49.542969 95.253906 49.023438 C 95.625 48.503906 96.03125 48.015625 96.476562 47.554688 C 96.921875 47.097656 97.402344 46.679688 97.914062 46.296875 C 98.425781 45.914062 98.960938 45.570312 99.523438 45.269531 C 100.089844 44.96875 100.671875 44.714844 101.273438 44.503906 Z M 88.839844 169.269531 L 99.535156 201.160156 C 99.84375 202.082031 100.34375 202.890625 101.03125 203.578125 C 101.71875 204.265625 102.527344 204.765625 103.449219 205.074219 C 104.078125 205.269531 104.722656 205.375 105.378906 205.386719 C 106.644531 205.390625 107.808594 205.039062 108.859375 204.328125 L 127.511719 191.898438 C 128.050781 191.53125 128.519531 191.089844 128.921875 190.574219 C 129.324219 190.058594 129.636719 189.492188 129.859375 188.878906 C 130.082031 188.265625 130.207031 187.632812 130.230469 186.980469 C 130.253906 186.328125 130.175781 185.6875 129.996094 185.058594 L 119.988281 149.4375 L 143.300781 149.4375 L 154.429688 255.117188 L 75.347656 255.117188 Z M 95.554688 267.550781 L 81.378906 360.800781 L 74.851562 360.800781 L 82.625 267.550781 Z M 95.554688 267.550781 " fill-opacity="1" fill-rule="nonzero"/></g></svg>